Coordinates
version=1
nRows=37
nColumns=34
inDegrees=no

Units are S.I. units (second, meters, Newtons, ...)
If the header above contains a line with 'inDegrees', this indicates whether rotational values are in degrees (yes) or radians (no).

endheader
time	pelvis_tilt	pelvis_list	pelvis_rotation	pelvis_tx	pelvis_ty	pelvis_tz	hip_flexion_r	hip_adduction_r	hip_rotation_r	knee_angle_r	ankle_angle_r	subtalar_angle_r	mtp_angle_r	hip_flexion_l	hip_adduction_l	hip_rotation_l	knee_angle_l	ankle_angle_l	subtalar_angle_l	mtp_angle_l	lumbar_extension	lumbar_bending	lumbar_rotation	arm_flex_r	arm_add_r	arm_rot_r	elbow_flex_r	pro_sup_r	arm_flex_l	arm_add_l	arm_rot_l	elbow_flex_l	pro_sup_l
0.78	-0.153507	0.263629	0.0123559	0.770477	0.916339	-0.258579	-0.0686505	-0.296583	-0.180011	0.684605	0.0273174	-0.0892014	-0.00727286	0.363407	0.276838	0.0359478	0.033247	-0.0170988	0.0920563	-0.00488253	-0.105632	-0.450353	0.0828274	-0.102168	-0.10033	0.103167	0.696749	1.60439	-0.194647	-0.26335	-0.46738	0.645312	1.89254
0.79	-0.157608	0.264984	0.00418416	0.780578	0.917496	-0.25779	-0.0310185	-0.297608	-0.142693	0.742048	-0.0100095	-0.154069	-0.00727751	0.355688	0.275691	0.0411129	0.0324656	-0.0118966	0.0822219	-0.00482678	-0.0990701	-0.458055	0.088176	-0.108597	-0.106658	0.13306	0.698488	1.59626	-0.184195	-0.264838	-0.469007	0.638078	1.89136
0.8	-0.16092	0.265669	-0.0048268	0.790405	0.9186	-0.257017	0.00768195	-0.298166	-0.108762	0.800507	-0.0411196	-0.211078	-0.00728216	0.347969	0.273615	0.0453165	0.0318498	-0.0066729	0.0731469	-0.00477103	-0.0932923	-0.464194	0.0933352	-0.114758	-0.113218	0.160392	0.700324	1.58815	-0.173588	-0.26596	-0.469715	0.631643	1.88915
0.81	-0.16305	0.265971	-0.0140938	0.800009	0.919683	-0.256285	0.0461062	-0.29843	-0.0788162	0.858476	-0.0649616	-0.259687	-0.0072868	0.33955	0.271161	0.0487621	0.0314105	-0.0012757	0.0651957	-0.00471527	-0.0889812	-0.469132	0.0974961	-0.1207	-0.119434	0.183989	0.701747	1.58013	-0.162915	-0.266845	-0.469593	0.626073	1.88605
0.82	-0.163712	0.266101	-0.0230901	0.809442	0.920757	-0.255619	0.0831682	-0.298544	-0.0531031	0.914605	-0.0810963	-0.299953	-0.00729144	0.329804	0.268805	0.0517886	0.0311293	0.00435503	0.0584842	-0.00465949	-0.0866563	-0.473149	0.100005	-0.126525	-0.124843	0.202996	0.702326	1.57212	-0.152236	-0.267589	-0.468718	0.621363	1.88212
0.83	-0.162759	0.266193	-0.0313988	0.818763	0.921854	-0.255036	0.118148	-0.298625	-0.031539	0.967789	-0.0896783	-0.332322	-0.00729607	0.318309	0.266918	0.054756	0.0309705	0.0102129	0.0529167	-0.0046037	-0.0866093	-0.476443	0.100427	-0.132357	-0.129123	0.216921	0.701761	1.56392	-0.14157	-0.268256	-0.467139	0.617431	1.8774
0.84	-0.160218	0.266329	-0.0387493	0.828014	0.922993	-0.254548	0.150738	-0.298748	-0.0137529	1.01722	-0.0913418	-0.357455	-0.0073007	0.304917	0.265743	0.0579519	0.0308933	0.0162634	0.0482578	-0.0045479	-0.0888687	-0.479129	0.0985883	-0.138321	-0.1321	0.225634	0.699914	1.55526	-0.130897	-0.268879	-0.464864	0.614135	1.8719
0.85	-0.156283	0.26653	-0.0450264	0.837215	0.924171	-0.254163	0.181026	-0.298925	0.000848287	1.06237	-0.0870263	-0.376094	-0.00730532	0.289767	0.265377	0.0615367	0.0308608	0.0224829	0.044216	-0.00449209	-0.0932054	-0.481253	0.0945677	-0.144517	-0.133741	0.229333	0.696799	1.54592	-0.120165	-0.269477	-0.461853	0.611289	1.86567
0.86	-0.151284	0.266758	-0.0502537	0.846367	0.925375	-0.25388	0.209403	-0.299072	0.0129896	1.10298	-0.0777872	-0.388986	-0.00730995	0.273226	0.265773	0.0655299	0.0308441	0.0288867	0.0405186	-0.00443626	-0.099183	-0.482797	0.0886536	-0.150993	-0.134124	0.228495	0.692536	1.53576	-0.109303	-0.270059	-0.458012	0.608694	1.85879
0.87	-0.145621	0.266919	-0.0545594	0.855466	0.92658	-0.253688	0.236429	-0.299008	0.0234247	1.13895	-0.0646321	-0.396851	-0.00731456	0.255798	0.266754	0.0698348	0.0308241	0.0355375	0.0369649	-0.00438043	-0.106244	-0.483686	0.0812729	-0.15774	-0.133411	0.223808	0.687298	1.52478	-0.098234	-0.270636	-0.453216	0.606178	1.85141
0.88	-0.139699	0.266863	-0.0581335	0.864503	0.927759	-0.253569	0.262686	-0.298451	0.0328363	1.17027	-0.0484128	-0.400365	-0.00731917	0.238015	0.268031	0.0742841	0.0307909	0.0425339	0.0334542	-0.00432459	-0.113807	-0.483796	0.0729105	-0.164683	-0.131817	0.216106	0.681252	1.5131	-0.0868952	-0.271224	-0.447323	0.603628	1.84378
0.89	-0.133864	0.266396	-0.0611861	0.873468	0.928887	-0.253502	0.288646	-0.297046	0.0417558	1.19698	-0.0297891	-0.400167	-0.00732378	0.220333	0.269236	0.0786927	0.0307418	0.0499867	0.0299889	-0.00426874	-0.121365	-0.48296	0.0640346	-0.17169	-0.129584	0.206291	0.674514	1.50097	-0.0752442	-0.271843	-0.440209	0.601017	1.83612
0.9	-0.128355	0.265306	-0.0639103	0.882352	0.929946	-0.253462	0.31458	-0.294395	0.0505142	1.21907	-0.009257	-0.39686	-0.00732839	0.203062	0.269955	0.0829029	0.0306788	0.0579905	0.0266568	-0.00421288	-0.128548	-0.480974	0.0550395	-0.178589	-0.126954	0.195256	0.66713	1.48874	-0.0632658	-0.272511	-0.431793	0.5984	1.82871
0.91	-0.123273	0.263378	-0.0664585	0.891157	0.930928	-0.253429	0.340526	-0.290121	0.0592331	1.23649	0.0127832	-0.391023	-0.00733299	0.186344	0.269776	0.0868132	0.0306048	0.0665989	0.0235997	-0.00415702	-0.135151	-0.477625	0.0462105	-0.185193	-0.124158	0.183812	0.659088	1.47677	-0.0509712	-0.273241	-0.422055	0.59591	1.82178
0.92	-0.118609	0.260404	-0.0689362	0.899886	0.931834	-0.253385	0.366311	-0.283937	0.0678541	1.24913	0.0359505	-0.383207	-0.00733758	0.170162	0.268356	0.0903853	0.0305226	0.0758083	0.0209738	-0.00410114	-0.141124	-0.472737	0.0377169	-0.191327	-0.121403	0.172621	0.650346	1.46544	-0.0383963	-0.274035	-0.411046	0.593714	1.81549
0.93	-0.114284	0.256243	-0.0714022	0.908547	0.932671	-0.253317	0.391634	-0.27571	0.0761954	1.25686	0.0598272	-0.373929	-0.00734218	0.154397	0.26547	0.0936317	0.0304339	0.0855529	0.0189099	-0.00404527	-0.146526	-0.466206	0.0296283	-0.196858	-0.118872	0.162157	0.640878	1.45511	-0.0255975	-0.274883	-0.398876	0.591984	1.80996
0.94	-0.110204	0.250868	-0.0738772	0.917154	0.933446	-0.253224	0.416162	-0.265514	0.0840198	1.25957	0.0839371	-0.363656	-0.00734677	0.138901	0.261066	0.096591	0.0303398	0.0957126	0.0174815	-0.00398938	-0.151454	-0.458032	0.0219432	-0.201721	-0.116714	0.152676	0.630711	1.44612	-0.0126479	-0.27576	-0.385696	0.59086	1.80524
0.95	-0.106301	0.244379	-0.0763509	0.925721	0.934162	-0.25311	0.439609	-0.253632	0.0910874	1.25718	0.107755	-0.352801	-0.00735135	0.123561	0.255265	0.0993048	0.0302406	0.106135	0.0166927	-0.00393349	-0.155994	-0.448331	0.0146172	-0.205917	-0.115049	0.14422	0.619941	1.43875	0.000367036	-0.276628	-0.371675	0.59043	1.80135
0.96	-0.102555	0.236987	-0.0787897	0.934261	0.934816	-0.252989	0.461787	-0.240528	0.0971857	1.24968	0.130738	-0.341718	-0.00735594	0.108334	0.248344	0.101799	0.0301379	0.116666	0.0164901	-0.00387759	-0.160184	-0.437314	0.0075834	-0.209514	-0.113958	0.13664	0.608732	1.43331	0.0133547	-0.277451	-0.35697	0.59074	1.79832
0.97	-0.0990034	0.228974	-0.0811408	0.942787	0.9354	-0.25288	0.48261	-0.226769	0.102132	1.23711	0.152369	-0.330708	-0.00736052	0.0932648	0.240669	0.104068	0.0300355	0.127182	0.0167966	-0.00382169	-0.164017	-0.425256	0.000766464	-0.212621	-0.113478	0.129636	0.597291	1.43007	0.0262226	-0.278193	-0.341712	0.591801	1.79615
0.98	-0.0957292	0.220644	-0.083337	0.951305	0.935902	-0.252803	0.50208	-0.212958	0.10576	1.21958	0.172197	-0.320025	-0.00736509	0.078472	0.232638	0.106065	0.0299419	0.137616	0.0175606	-0.00376578	-0.167445	-0.412451	-0.00590977	-0.215366	-0.113603	0.122807	0.585835	1.42934	0.0388852	-0.278832	-0.326	0.593622	1.79487
0.99	-0.0928434	0.212284	-0.0853011	0.959821	0.936309	-0.252779	0.52026	-0.199662	0.107894	1.1972	0.189869	-0.309859	-0.00736966	0.0641313	0.224617	0.107696	0.0298703	0.147972	0.0188066	-0.00370987	-0.170408	-0.39918	-0.0125194	-0.217865	-0.114286	0.115702	0.574562	1.43141	0.0512693	-0.279363	-0.309911	0.596233	1.79451
1	-0.0904631	0.204142	-0.0869557	0.968333	0.936605	-0.252824	0.537243	-0.187376	0.108333	1.17016	0.205164	-0.300305	-0.00737423	0.050441	0.216907	0.108815	0.0298391	0.158313	0.020675	-0.00365396	-0.172841	-0.385683	-0.0191328	-0.220211	-0.11544	0.107869	0.563626	1.43655	0.0633147	-0.279794	-0.293522	0.599692	1.79505
1.01	-0.0886948	0.196413	-0.0882311	0.97684	0.936778	-0.252947	0.553124	-0.176489	0.106836	1.13864	0.21801	-0.291297	-0.0073788	0.0375891	0.209725	0.109235	0.0298701	0.168746	0.0234359	-0.00359804	-0.1747	-0.372158	-0.0258167	-0.222459	-0.116955	0.098909	0.553131	1.445	0.0749749	-0.280146	-0.276939	0.604087	1.79645
1.02	-0.0876197	0.189239	-0.0890739	0.985335	0.93682	-0.253155	0.567971	-0.16728	0.103125	1.10287	0.228495	-0.282543	-0.00738336	0.0257215	0.203208	0.108737	0.0299842	0.17939	0.0274694	-0.00354211	-0.175969	-0.358758	-0.0326334	-0.224624	-0.118706	0.0885141	0.543136	1.45687	0.0862159	-0.280446	-0.260311	0.609524	1.79857
1.03	-0.0872821	0.182715	-0.0894535	0.993817	0.936723	-0.253446	0.581815	-0.159908	0.096909	1.06308	0.236863	-0.273458	-0.00738793	0.0149148	0.197415	0.107109	0.0301946	0.190345	0.0332112	-0.00348617	-0.176661	-0.345594	-0.0396361	-0.226688	-0.120564	0.0765072	0.533671	1.47206	0.097012	-0.28072	-0.243835	0.61611	1.80122
1.04	-0.0876816	0.176887	-0.0893665	1.00229	0.936486	-0.253811	0.594633	-0.154413	0.0879135	1.01955	0.243497	-0.263134	-0.00739249	0.00515614	0.19235	0.104185	0.0304985	0.201657	0.0410686	-0.00343023	-0.17682	-0.332747	-0.0468617	-0.228606	-0.122417	0.0628648	0.524753	1.49022	0.107341	-0.280991	-0.227748	0.623931	1.80417
1.05	-0.088769	0.171759	-0.0888367	1.01075	0.936111	-0.254239	0.606339	-0.150718	0.0759215	0.972506	0.248883	-0.250361	-0.00739705	-0.00367149	0.187974	0.0999065	0.0308671	0.213298	0.0513219	-0.00337428	-0.176517	-0.320259	-0.0543217	-0.230327	-0.124171	0.0477232	0.516415	1.51062	0.117181	-0.281267	-0.212291	0.633038	1.80717
1.06	-0.0904447	0.167293	-0.0879098	1.01921	0.935605	-0.254714	0.616779	-0.148632	0.0608217	0.922204	0.253549	-0.233723	-0.00740161	-0.0117943	0.184214	0.0943695	0.0312383	0.22516	0.0640394	-0.00331832	-0.175845	-0.308137	-0.0619931	-0.23181	-0.125763	0.0313594	0.508713	1.5322	0.126512	-0.281544	-0.197674	0.643431	1.80998
1.07	-0.0925631	0.163406	-0.0866437	1.02769	0.934978	-0.25522	0.625726	-0.147855	0.0426556	0.868847	0.257995	-0.211764	-0.00740617	-0.0195367	0.18097	0.0878441	0.031513	0.23707	0.0790348	-0.00326236	-0.174926	-0.296334	-0.0698125	-0.233038	-0.127163	0.0141448	0.501739	1.55365	0.135325	-0.2818	-0.184039	0.655051	1.81244
1.08	-0.0949496	0.159962	-0.0851021	1.03621	0.934243	-0.255742	0.632905	-0.147982	0.0216684	0.812616	0.262606	-0.183225	-0.00741073	-0.0272836	0.178106	0.0807458	0.0315605	0.248834	0.0958945	-0.00320639	-0.17389	-0.284748	-0.0776721	-0.234025	-0.128364	-0.00351983	0.495601	1.57363	0.143626	-0.281998	-0.171444	0.667783	1.81447
1.09	-0.097421	0.156783	-0.0833488	1.0448	0.933413	-0.256266	0.638026	-0.148523	-0.00164982	0.753679	0.267578	-0.147305	-0.00741529	-0.0354231	0.17545	0.0735352	0.0312354	0.260296	0.114106	-0.00315041	-0.172865	-0.27322	-0.0854283	-0.234817	-0.129376	-0.0212842	0.490402	1.59124	0.151433	-0.282095	-0.159865	0.681472	1.81608
1.1	-0.0998155	0.153666	-0.0814396	1.05349	0.932497	-0.256778	0.640848	-0.148945	-0.026533	0.692249	0.27288	-0.103909	-0.00741985	-0.04427	0.172806	0.0666447	0.0304095	0.27137	0.133119	-0.00309443	-0.17195	-0.261554	-0.0929247	-0.235479	-0.130222	-0.0388669	0.48622	1.60603	0.158766	-0.282046	-0.149232	0.695946	1.81732
1.11	-0.10201	0.150412	-0.0794146	1.06228	0.931505	-0.257268	0.641216	-0.148732	-0.0519514	0.628645	0.278259	-0.0538084	-0.00742442	-0.0539986	0.169972	0.0603683	0.029019	0.282065	0.152456	-0.00303845	-0.171208	-0.249545	-0.100018	-0.236081	-0.130929	-0.0560625	0.4831	1.618	0.16564	-0.281812	-0.139448	0.711039	1.8183
1.12	-0.103945	0.146858	-0.0772933	1.0712	0.930446	-0.257728	0.639118	-0.14745	-0.0766549	0.563388	0.283292	0.00128312	-0.00742898	-0.0645786	0.166755	0.0547708	0.0271242	0.292485	0.171771	-0.00298246	-0.170661	-0.237012	-0.106603	-0.236682	-0.131526	-0.072722	0.481055	1.62744	0.172054	-0.281369	-0.130419	0.726607	1.8191
1.13	-0.105631	0.142884	-0.075073	1.08025	0.929322	-0.258152	0.634708	-0.144815	-0.0992902	0.497275	0.287495	0.0588367	-0.00743354	-0.0757441	0.16299	0.0495568	0.0249713	0.302844	0.190993	-0.00292647	-0.170296	-0.223825	-0.112632	-0.237318	-0.132046	-0.0887488	0.480061	1.63479	0.177993	-0.280706	-0.122056	0.742525	1.81978
1.14	-0.107137	0.138422	-0.0727304	1.08943	0.928137	-0.258537	0.628335	-0.140741	-0.118551	0.431436	0.290436	0.115742	-0.00743811	-0.0869825	0.158547	0.0439989	0.0230433	0.313453	0.210378	-0.00287048	-0.170053	-0.209932	-0.11812	-0.237992	-0.132517	-0.104078	0.48006	1.64049	0.183425	-0.27983	-0.114275	0.758685	1.82038
